<svg xmlns="http://www.w3.org/2000/svg" width="32" height="32" viewBox="0 0 200 200">
  <circle cx="100" cy="100" r="95" fill="#6B3CE3"/>
  <path d="M100 10 C55 10 18 42 12 85 C10 98 12 112 18 124 C40 68 85 35 140 30 C128 17 114 10 100 10Z" fill="#8B6CEF"/>
  <path d="M188 100 C188 145 160 183 120 195 C108 198 96 200 85 198 C150 185 185 145 185 95 C183 80 178 66 170 55 C182 68 188 83 188 100Z" fill="#8B6CEF"/>
  <path d="M45 170 C32 155 22 135 18 115 C50 155 95 175 150 168 C138 180 122 190 105 195 C82 198 62 188 45 170Z" fill="white" fill-opacity="0.3"/>
  <path d="M100 5 C45 5 5 45 5 100 C5 155 45 195 100 195 C155 195 195 155 195 100 C195 45 155 5 100 5Z M100 15 C150 15 185 50 185 100 C185 150 150 185 100 185 C50 185 15 150 15 100 C15 50 50 15 100 15Z" fill="none"/>
</svg>
